<mxfile host="app.diagrams.net" modified="2023-06-19T12:14:56.457Z" agent="Mozilla/5.0 (Windows NT 10.0; Win64; x64) AppleWebKit/537.36 (KHTML, like Gecko) Chrome/114.0.0.0 Safari/537.36" version="21.5.0" etag="9dYvrWW2L2FnG-H4i8D_" type="device">
  <diagram id="UQE55S1MqvhgJ_pCjV3x" name="Page-1">
    <mxGraphModel dx="2049" dy="1137" grid="1" gridSize="10" guides="1" tooltips="1" connect="1" arrows="1" fold="1" page="1" pageScale="1" pageWidth="1100" pageHeight="1700" math="0" shadow="0">
      <root>
        <mxCell id="0" />
        <mxCell id="1" parent="0" />
        <mxCell id="qNvBDW42EXAJheRvkTiL-5" value="" style="edgeStyle=orthogonalEdgeStyle;rounded=0;orthogonalLoop=1;jettySize=auto;html=1;" edge="1" parent="1" source="qNvBDW42EXAJheRvkTiL-2">
          <mxGeometry relative="1" as="geometry">
            <mxPoint x="490" y="170" as="targetPoint" />
          </mxGeometry>
        </mxCell>
        <mxCell id="qNvBDW42EXAJheRvkTiL-6" value="" style="edgeStyle=orthogonalEdgeStyle;rounded=0;orthogonalLoop=1;jettySize=auto;html=1;" edge="1" parent="1" source="qNvBDW42EXAJheRvkTiL-2">
          <mxGeometry relative="1" as="geometry">
            <mxPoint x="300" y="170" as="targetPoint" />
          </mxGeometry>
        </mxCell>
        <mxCell id="qNvBDW42EXAJheRvkTiL-7" value="" style="edgeStyle=orthogonalEdgeStyle;rounded=0;orthogonalLoop=1;jettySize=auto;html=1;" edge="1" parent="1" source="qNvBDW42EXAJheRvkTiL-2">
          <mxGeometry relative="1" as="geometry">
            <mxPoint x="110" y="170" as="targetPoint" />
          </mxGeometry>
        </mxCell>
        <mxCell id="qNvBDW42EXAJheRvkTiL-2" value="Start" style="ellipse;whiteSpace=wrap;html=1;" vertex="1" parent="1">
          <mxGeometry x="235" y="20" width="130" height="80" as="geometry" />
        </mxCell>
        <mxCell id="qNvBDW42EXAJheRvkTiL-12" value="" style="edgeStyle=orthogonalEdgeStyle;rounded=0;orthogonalLoop=1;jettySize=auto;html=1;" edge="1" parent="1" source="qNvBDW42EXAJheRvkTiL-8" target="qNvBDW42EXAJheRvkTiL-11">
          <mxGeometry relative="1" as="geometry">
            <Array as="points">
              <mxPoint x="105" y="310" />
              <mxPoint x="105" y="310" />
            </Array>
          </mxGeometry>
        </mxCell>
        <mxCell id="qNvBDW42EXAJheRvkTiL-8" value="Input Number" style="shape=parallelogram;perimeter=parallelogramPerimeter;whiteSpace=wrap;html=1;fixedSize=1;" vertex="1" parent="1">
          <mxGeometry x="40" y="170" width="130" height="60" as="geometry" />
        </mxCell>
        <mxCell id="qNvBDW42EXAJheRvkTiL-14" value="" style="edgeStyle=orthogonalEdgeStyle;rounded=0;orthogonalLoop=1;jettySize=auto;html=1;" edge="1" parent="1" source="qNvBDW42EXAJheRvkTiL-9" target="qNvBDW42EXAJheRvkTiL-13">
          <mxGeometry relative="1" as="geometry">
            <Array as="points">
              <mxPoint x="300" y="320" />
              <mxPoint x="300" y="320" />
            </Array>
          </mxGeometry>
        </mxCell>
        <mxCell id="qNvBDW42EXAJheRvkTiL-9" value="Input Number" style="shape=parallelogram;perimeter=parallelogramPerimeter;whiteSpace=wrap;html=1;fixedSize=1;" vertex="1" parent="1">
          <mxGeometry x="235" y="170" width="130" height="60" as="geometry" />
        </mxCell>
        <mxCell id="qNvBDW42EXAJheRvkTiL-17" value="" style="edgeStyle=orthogonalEdgeStyle;rounded=0;orthogonalLoop=1;jettySize=auto;html=1;" edge="1" parent="1" source="qNvBDW42EXAJheRvkTiL-10" target="qNvBDW42EXAJheRvkTiL-16">
          <mxGeometry relative="1" as="geometry">
            <Array as="points">
              <mxPoint x="485" y="330" />
              <mxPoint x="485" y="330" />
            </Array>
          </mxGeometry>
        </mxCell>
        <mxCell id="qNvBDW42EXAJheRvkTiL-10" value="Input Number" style="shape=parallelogram;perimeter=parallelogramPerimeter;whiteSpace=wrap;html=1;fixedSize=1;" vertex="1" parent="1">
          <mxGeometry x="420" y="170" width="130" height="60" as="geometry" />
        </mxCell>
        <mxCell id="qNvBDW42EXAJheRvkTiL-11" value="Run factorial subroutine" style="whiteSpace=wrap;html=1;" vertex="1" parent="1">
          <mxGeometry x="45" y="360" width="120" height="60" as="geometry" />
        </mxCell>
        <mxCell id="qNvBDW42EXAJheRvkTiL-13" value="Run prime number subroutine" style="whiteSpace=wrap;html=1;" vertex="1" parent="1">
          <mxGeometry x="240" y="360" width="120" height="60" as="geometry" />
        </mxCell>
        <mxCell id="qNvBDW42EXAJheRvkTiL-16" value="Run fibonacci sequence subroutine" style="whiteSpace=wrap;html=1;" vertex="1" parent="1">
          <mxGeometry x="425" y="360" width="120" height="60" as="geometry" />
        </mxCell>
        <mxCell id="qNvBDW42EXAJheRvkTiL-21" value="" style="ellipse;whiteSpace=wrap;html=1;" vertex="1" parent="1">
          <mxGeometry x="870" y="60" width="80" height="80" as="geometry" />
        </mxCell>
      </root>
    </mxGraphModel>
  </diagram>
</mxfile>
